<svg width="32" height="32" viewBox="0 0 32 32" fill="none" xmlns="http://www.w3.org/2000/svg">
  <defs>
    <linearGradient id="phoenixGradient" x1="0%" y1="100%" x2="100%" y2="0%">
      <stop offset="0%" style="stop-color:#C0176C;stop-opacity:1" />
      <stop offset="50%" style="stop-color:#D2137D;stop-opacity:1" />
      <stop offset="100%" style="stop-color:#FF8A00;stop-opacity:1" />
    </linearGradient>
  </defs>
  <!-- Fénix pixelado -->
  <path d="M4 8 L8 8 L8 12 L12 12 L12 16 L16 16 L16 20 L20 20 L20 24 L24 24 L24 20 L20 20 L20 16 L16 16 L16 12 L12 12 L12 8 L8 8 L8 4 L4 4 Z" fill="url(#phoenixGradient)"/>
  <path d="M8 4 L12 4 L12 8 L16 8 L16 12 L20 12 L20 16 L24 16 L24 12 L20 12 L20 8 L16 8 L16 4 L12 4 L12 0 L8 0 Z" fill="url(#phoenixGradient)" opacity="0.8"/>
  <!-- Cabeza del fénix -->
  <circle cx="24" cy="8" r="3" fill="url(#phoenixGradient)"/>
  <path d="M26 6 L28 4" stroke="url(#phoenixGradient)" stroke-width="1.5" stroke-linecap="round"/>
</svg>
