<svg width="120" height="80" viewBox="0 0 120 80" fill="none" xmlns="http://www.w3.org/2000/svg">
  <!-- Background -->
  <rect width="120" height="80" rx="8" fill="#1a1a1a" stroke="#374151" stroke-width="1"/>
  
  <!-- Header -->
  <rect x="8" y="8" width="104" height="16" fill="#1e1b4b"/>
  <rect x="12" y="12" width="60" height="8" rx="2" fill="#6366f1"/>
  
  <!-- Table -->
  <rect x="8" y="28" width="104" height="44" fill="#111" rx="4"/>
  
  <!-- Table rows -->
  <rect x="12" y="32" width="96" height="8" rx="2" fill="#374151"/>
  <rect x="12" y="44" width="40" height="6" rx="2" fill="#6b7280"/>
  <rect x="56" y="44" width="20" height="6" rx="2" fill="#6b7280"/>
  <rect x="80" y="44" width="16" height="6" rx="2" fill="#6b7280"/>
  
  <rect x="12" y="54" width="40" height="6" rx="2" fill="#6b7280"/>
  <rect x="56" y="54" width="20" height="6" rx="2" fill="#6b7280"/>
  <rect x="80" y="54" width="16" height="6" rx="2" fill="#6b7280"/>
  
  <rect x="12" y="64" width="40" height="6" rx="2" fill="#6b7280"/>
  <rect x="56" y="64" width="20" height="6" rx="2" fill="#6b7280"/>
  <rect x="80" y="64" width="16" height="6" rx="2" fill="#6b7280"/>
</svg>
