<svg width="120" height="80" viewBox="0 0 120 80" fill="none" xmlns="http://www.w3.org/2000/svg">
  <!-- Background -->
  <rect width="120" height="80" rx="8" fill="#1a1a1a" stroke="#374151" stroke-width="1"/>
  
  <!-- Header -->
  <rect x="8" y="8" width="104" height="16" fill="#7c2d12"/>
  <rect x="12" y="12" width="60" height="8" rx="2" fill="#f97316"/>
  
  <!-- User avatars -->
  <rect x="8" y="28" width="104" height="44" fill="#111" rx="4"/>
  
  <!-- User list -->
  <rect x="16" y="36" width="88" height="12" rx="4" fill="#1e1b4b" stroke="#6366f1" stroke-width="1"/>
  <circle cx="24" cy="42" r="3" fill="#6366f1"/>
  <rect x="32" y="40" width="40" height="4" rx="2" fill="#a5b4fc"/>
  <rect x="80" y="40" width="16" height="4" rx="2" fill="#a5b4fc"/>
  
  <rect x="16" y="52" width="88" height="12" rx="4" fill="#166534" stroke="#22c55e" stroke-width="1"/>
  <circle cx="24" cy="58" r="3" fill="#22c55e"/>
  <rect x="32" y="56" width="40" height="4" rx="2" fill="#86efac"/>
  <rect x="80" y="56" width="16" height="4" rx="2" fill="#86efac"/>
  
  <rect x="16" y="68" width="88" height="12" rx="4" fill="#374151"/>
  <circle cx="24" cy="74" r="3" fill="#6b7280"/>
  <rect x="32" y="72" width="40" height="4" rx="2" fill="#9ca3af"/>
  <rect x="80" y="72" width="16" height="4" rx="2" fill="#9ca3af"/>
</svg>
