<svg width="600" height="400" viewBox="0 0 600 400" fill="none" xmlns="http://www.w3.org/2000/svg">
  <!-- Laptop base -->
  <rect x="50" y="200" width="500" height="300" rx="20" fill="#1a1a1a" stroke="#333" stroke-width="2"/>
  
  <!-- Screen -->
  <rect x="70" y="80" width="460" height="300" rx="8" fill="#0f0f0f" stroke="#444" stroke-width="1"/>
  
  <!-- Screen content - Dashboard -->
  <rect x="80" y="90" width="440" height="280" fill="#111" rx="4"/>
  
  <!-- Sidebar -->
  <rect x="80" y="90" width="80" height="280" fill="#1a1a1a"/>
  <rect x="85" y="100" width="70" height="40" rx="4" fill="#8b5cf6"/>
  <rect x="85" y="150" width="70" height="8" rx="4" fill="#374151"/>
  <rect x="85" y="170" width="70" height="8" rx="4" fill="#374151"/>
  <rect x="85" y="190" width="70" height="8" rx="4" fill="#374151"/>
  <rect x="85" y="210" width="70" height="8" rx="4" fill="#374151"/>
  
  <!-- Main content area -->
  <rect x="170" y="90" width="350" height="60" fill="#1a1a1a"/>
  <rect x="180" y="100" width="200" height="20" rx="4" fill="#374151"/>
  <rect x="180" y="130" width="150" height="12" rx="4" fill="#6b7280"/>
  
  <!-- Cards grid -->
  <rect x="180" y="170" width="100" height="80" rx="8" fill="#1e1b4b" stroke="#6366f1" stroke-width="1"/>
  <rect x="190" y="180" width="80" height="12" rx="4" fill="#6366f1"/>
  <rect x="190" y="200" width="60" height="8" rx="4" fill="#a5b4fc"/>
  <rect x="190" y="220" width="40" height="8" rx="4" fill="#a5b4fc"/>
  
  <rect x="300" y="170" width="100" height="80" rx="8" fill="#7c2d12" stroke="#f97316" stroke-width="1"/>
  <rect x="310" y="180" width="80" height="12" rx="4" fill="#f97316"/>
  <rect x="310" y="200" width="60" height="8" rx="4" fill="#fed7aa"/>
  <rect x="310" y="220" width="40" height="8" rx="4" fill="#fed7aa"/>
  
  <rect x="420" y="170" width="100" height="80" rx="8" fill="#166534" stroke="#22c55e" stroke-width="1"/>
  <rect x="430" y="180" width="80" height="12" rx="4" fill="#22c55e"/>
  <rect x="430" y="200" width="60" height="8" rx="4" fill="#86efac"/>
  <rect x="430" y="220" width="40" height="8" rx="4" fill="#86efac"/>
  
  <!-- Data table -->
  <rect x="180" y="270" width="340" height="100" rx="8" fill="#1a1a1a" stroke="#374151" stroke-width="1"/>
  <rect x="190" y="280" width="320" height="20" rx="4" fill="#374151"/>
  <rect x="190" y="310" width="100" height="12" rx="4" fill="#6b7280"/>
  <rect x="300" y="310" width="80" height="12" rx="4" fill="#6b7280"/>
  <rect x="390" y="310" width="60" height="12" rx="4" fill="#6b7280"/>
  <rect x="460" y="310" width="50" height="12" rx="4" fill="#6b7280"/>
  
  <!-- Glow effect -->
  <defs>
    <filter id="glow">
      <feGaussianBlur stdDeviation="4" result="coloredBlur"/>
      <feMerge> 
        <feMergeNode in="coloredBlur"/>
        <feMergeNode in="SourceGraphic"/>
      </feMerge>
    </filter>
  </defs>
  
  <!-- Screen glow -->
  <rect x="70" y="80" width="460" height="300" rx="8" fill="none" stroke="#8b5cf6" stroke-width="2" opacity="0.3" filter="url(#glow)"/>
</svg>
