<svg width="600" height="400" viewBox="0 0 600 400" fill="none" xmlns="http://www.w3.org/2000/svg">
  <defs>
    <linearGradient id="portfolioGradient" x1="0%" y1="0%" x2="100%" y2="100%">
      <stop offset="0%" style="stop-color:#0d0712;stop-opacity:1" />
      <stop offset="100%" style="stop-color:#2b0f2f;stop-opacity:1" />
    </linearGradient>
    <linearGradient id="phoenixGradient" x1="0%" y1="100%" x2="100%" y2="0%">
      <stop offset="0%" style="stop-color:#C0176C;stop-opacity:1" />
      <stop offset="50%" style="stop-color:#D2137D;stop-opacity:1" />
      <stop offset="100%" style="stop-color:#FF8A00;stop-opacity:1" />
    </linearGradient>
  </defs>
  
  <!-- Background -->
  <rect width="600" height="400" fill="url(#portfolioGradient)"/>
  
  <!-- Phoenix Logo -->
  <path d="M100 150 L120 150 L120 170 L140 170 L140 190 L160 190 L160 210 L180 210 L180 230 L200 230 L200 210 L180 210 L180 190 L160 190 L160 170 L140 170 L140 150 L120 150 L120 130 L100 130 Z" fill="url(#phoenixGradient)"/>
  <circle cx="180" cy="150" r="15" fill="url(#phoenixGradient)"/>
  
  <!-- Text -->
  <text x="250" y="180" font-family="Inter, sans-serif" font-size="48" font-weight="bold" fill="white">LANDING</text>
  <text x="250" y="220" font-family="Inter, sans-serif" font-size="48" font-weight="bold" fill="white">PAGE</text>
  <text x="250" y="260" font-family="Inter, sans-serif" font-size="48" font-weight="bold" fill="white">PREMIUM</text>
  <text x="250" y="300" font-family="Inter, sans-serif" font-size="32" font-weight="normal" fill="white">EN 5 DÍAS</text>
  
  <!-- Button -->
  <rect x="250" y="330" width="200" height="40" rx="20" fill="url(#phoenixGradient)"/>
  <text x="350" y="355" font-family="Inter, sans-serif" font-size="16" font-weight="bold" fill="white" text-anchor="middle">SOLICITAR DEMO</text>
</svg>
