<svg width="300" height="600" viewBox="0 0 300 600" fill="none" xmlns="http://www.w3.org/2000/svg">
  <defs>
    <linearGradient id="portfolioGradient" x1="0%" y1="0%" x2="100%" y2="100%">
      <stop offset="0%" style="stop-color:#0d0712;stop-opacity:1" />
      <stop offset="100%" style="stop-color:#2b0f2f;stop-opacity:1" />
    </linearGradient>
    <linearGradient id="phoenixGradient" x1="0%" y1="100%" x2="100%" y2="0%">
      <stop offset="0%" style="stop-color:#C0176C;stop-opacity:1" />
      <stop offset="50%" style="stop-color:#D2137D;stop-opacity:1" />
      <stop offset="100%" style="stop-color:#FF8A00;stop-opacity:1" />
    </linearGradient>
  </defs>
  
  <!-- Background -->
  <rect width="300" height="600" fill="url(#portfolioGradient)"/>
  
  <!-- Phoenix Logo -->
  <circle cx="150" cy="120" r="25" fill="url(#phoenixGradient)"/>
  <path d="M130 100 L140 100 L140 110 L150 110 L150 120 L160 120 L160 130 L170 130 L170 140 L180 140 L180 150 L190 150 L190 140 L180 140 L180 130 L170 130 L170 120 L160 120 L160 110 L150 110 L150 100 L140 100 L140 90 L130 90 Z" fill="url(#phoenixGradient)"/>
  
  <!-- Text -->
  <text x="150" y="200" font-family="Inter, sans-serif" font-size="24" font-weight="bold" fill="white" text-anchor="middle">LANDING</text>
  <text x="150" y="230" font-family="Inter, sans-serif" font-size="24" font-weight="bold" fill="white" text-anchor="middle">PAGE</text>
  <text x="150" y="260" font-family="Inter, sans-serif" font-size="24" font-weight="bold" fill="white" text-anchor="middle">PREMIUM</text>
  <text x="150" y="290" font-family="Inter, sans-serif" font-size="18" font-weight="normal" fill="white" text-anchor="middle">EN 5 DÍAS</text>
  
  <!-- Button -->
  <rect x="50" y="350" width="200" height="50" rx="25" fill="url(#phoenixGradient)"/>
  <text x="150" y="385" font-family="Inter, sans-serif" font-size="14" font-weight="bold" fill="white" text-anchor="middle">SOLICITAR DEMO</text>
  <text x="150" y="405" font-family="Inter, sans-serif" font-size="14" font-weight="bold" fill="white" text-anchor="middle">GRATUITA</text>
</svg>
